<svg width="95" height="96" viewBox="0 0 95 96" fill="none" xmlns="http://www.w3.org/2000/svg">
<path d="M95 45.4532C95 46.2405 94.6872 46.9956 94.1305 47.5524C93.5737 48.1091 92.8186 48.4219 92.0312 48.4219H2.96875C2.18139 48.4219 1.42628 48.1091 0.869527 47.5524C0.312778 46.9956 0 46.2405 0 45.4532C0 44.6658 0.312778 43.9107 0.869527 43.3539C1.42628 42.7972 2.18139 42.4844 2.96875 42.4844H13.3297L30.9566 18.2112C31.4908 17.4778 32.1859 16.8766 32.9886 16.4537C33.7914 16.0308 34.6803 15.7975 35.5872 15.7717C36.4942 15.7459 37.3949 15.9283 38.2204 16.3048C39.0459 16.6814 39.774 17.2421 40.349 17.944L45.1176 23.4733L45.1918 23.5586C45.4681 23.9057 45.8191 24.1861 46.2188 24.3787C46.6184 24.5714 47.0563 24.6715 47.5 24.6715C47.9437 24.6715 48.3816 24.5714 48.7812 24.3787C49.1809 24.1861 49.5319 23.9057 49.8082 23.5586L49.8824 23.4733L54.651 17.944C55.226 17.2421 55.9541 16.6814 56.7796 16.3048C57.6051 15.9283 58.5058 15.7459 59.4128 15.7717C60.3197 15.7975 61.2086 16.0308 62.0114 16.4537C62.8141 16.8766 63.5092 17.4778 64.0434 18.2112L81.6703 42.4844H92.0312C92.8186 42.4844 93.5737 42.7972 94.1305 43.3539C94.6872 43.9107 95 44.6658 95 45.4532ZM66.7969 54.3594C63.5112 54.3601 60.341 55.5715 57.8923 57.7622C55.4435 59.9528 53.8879 62.9691 53.5229 66.2344H41.4771C41.1112 62.9721 39.557 59.9587 37.1109 57.7693C34.6649 55.5799 31.4984 54.3677 28.2156 54.3642C24.9328 54.3606 21.7637 55.5658 19.3129 57.7499C16.8621 59.934 15.3012 62.944 14.9282 66.2055C14.5552 69.467 15.396 72.7516 17.2904 75.4327C19.1847 78.1137 21.9999 80.0034 25.1987 80.7412C28.3975 81.4789 31.756 81.0131 34.6332 79.4325C37.5104 77.852 39.705 75.2673 40.798 72.1719H54.202C55.0184 74.4811 56.4539 76.5213 58.3515 78.0697C60.2492 79.6181 62.536 80.615 64.962 80.9515C67.388 81.288 69.8598 80.951 72.1073 79.9775C74.3547 79.0041 76.2913 77.4315 77.7053 75.4317C79.1193 73.4319 79.9564 71.0818 80.125 68.6384C80.2936 66.195 79.7872 63.7523 78.6613 61.5772C77.5353 59.4021 75.8331 57.5785 73.7406 56.3055C71.6482 55.0326 69.2461 54.3593 66.7969 54.3594Z" fill="#CF1D05"/>
</svg>
