<svg width="95" height="95" viewBox="0 0 95 95" fill="none" xmlns="http://www.w3.org/2000/svg">
<path d="M72.9386 23.7834C70.8814 18.7239 67.3622 14.3928 62.8308 11.3437C58.2995 8.29455 52.9618 6.66589 47.5001 6.66589C42.0384 6.66589 36.7007 8.29455 32.1694 11.3437C27.638 14.3928 24.1188 18.7239 22.0616 23.7834C17.4848 25.813 13.5954 29.1272 10.8651 33.3238C8.13473 37.5204 6.68084 42.4191 6.67978 47.4258C6.64267 61.1971 18.2319 73.1055 31.9847 73.4765C36.6273 73.5853 41.2148 72.4529 45.2735 70.1961V86.0937C45.2735 86.6843 45.5081 87.2506 45.9257 87.6682C46.3432 88.0857 46.9096 88.3203 47.5001 88.3203C48.0906 88.3203 48.6569 88.0857 49.0745 87.6682C49.4921 87.2506 49.7267 86.6843 49.7267 86.0937V70.1961C53.5858 72.3428 57.9278 73.4717 62.3438 73.4765H63.0007C76.7683 73.1055 88.3575 61.1933 88.3204 47.4258C88.3193 42.4191 86.8655 37.5204 84.1351 33.3238C81.4048 29.1272 77.5153 25.813 72.9386 23.7834ZM62.9005 69.0234C58.1799 69.1479 53.5498 67.7132 49.7267 64.9414V48.8767L66.3071 40.5865C66.8356 40.3227 67.2377 39.8598 67.4249 39.2996C67.6121 38.7394 67.5691 38.1277 67.3054 37.5992C67.0416 37.0707 66.5787 36.6686 66.0185 36.4814C65.4582 36.2942 64.8466 36.3372 64.3181 36.601L49.7267 43.8967V32.6562C49.7267 32.0657 49.4921 31.4994 49.0745 31.0818C48.6569 30.6643 48.0906 30.4297 47.5001 30.4297C46.9096 30.4297 46.3432 30.6643 45.9257 31.0818C45.5081 31.4994 45.2735 32.0657 45.2735 32.6562V52.8029L30.6821 45.5072C30.1536 45.2434 29.542 45.2004 28.9817 45.3876C28.4215 45.5748 27.9586 45.9769 27.6948 46.5054C27.431 47.034 27.388 47.6456 27.5752 48.2058C27.7625 48.7661 28.1645 49.229 28.6931 49.4928L45.2735 57.783V64.9414C41.4476 67.7077 36.8195 69.1418 32.0997 69.0234C20.7034 68.7377 11.1032 58.8554 11.1329 47.448C11.1327 43.1592 12.4186 38.9688 14.8246 35.4184C17.2306 31.8679 20.646 29.1206 24.6296 27.5314C24.9188 27.4146 25.1803 27.2382 25.397 27.0138C25.6137 26.7894 25.7808 26.522 25.8876 26.2289C27.5055 21.7972 30.4467 17.97 34.3126 15.2659C38.1786 12.5618 42.7823 11.1115 47.5001 11.1115C52.2179 11.1115 56.8216 12.5618 60.6875 15.2659C64.5534 17.97 67.4946 21.7972 69.1126 26.2289C69.2193 26.522 69.3865 26.7894 69.6032 27.0138C69.8199 27.2382 70.0814 27.4146 70.3706 27.5314C74.3527 29.1195 77.7672 31.865 80.1731 35.4133C82.579 38.9617 83.8658 43.1498 83.8673 47.4369C83.897 58.848 74.2968 68.7265 62.9005 69.0234Z" fill="#CF1D05"/>
</svg>
